<svg width="12" height="8" viewBox="0 0 12 8" fill="none" xmlns="http://www.w3.org/2000/svg">
<path fill-rule="evenodd" clip-rule="evenodd" d="M0.26352 1.8075C0.127456 1.64872 0.0397013 1.45429 0.0106325 1.24721C-0.0184363 1.04014 0.0123961 0.829066 0.0994837 0.638957C0.186571 0.448847 0.326273 0.287648 0.502071 0.174419C0.677869 0.0611894 0.882413 0.000664776 1.09152 0H10.9045C11.1136 0.000664776 11.3182 0.0611894 11.494 0.174419C11.6698 0.287648 11.8095 0.448847 11.8966 0.638957C11.9836 0.829066 12.0145 1.04014 11.9854 1.24721C11.9563 1.45429 11.8686 1.64872 11.7325 1.8075L7.19802 7.071C7.05726 7.23425 6.88298 7.36525 6.68703 7.45507C6.49108 7.54489 6.27807 7.59142 6.06252 7.5915H5.93652C5.72097 7.59142 5.50796 7.54489 5.31201 7.45507C5.11606 7.36525 4.94178 7.23425 4.80102 7.071L0.26352 1.8075Z" fill="#393C3F"/>
</svg>
