<svg width="20" height="20" viewBox="0 0 20 20" fill="none" xmlns="http://www.w3.org/2000/svg">
<path fill-rule="evenodd" clip-rule="evenodd" d="M15 2.25H4.5C3.90326 2.25 3.33097 2.48705 2.90901 2.90901C2.48705 3.33097 2.25 3.90326 2.25 4.5V15C2.25 15.5967 2.48705 16.169 2.90901 16.591C3.33097 17.0129 3.90326 17.25 4.5 17.25H15C15.5967 17.25 16.169 17.0129 16.591 16.591C17.0129 16.169 17.25 15.5967 17.25 15V4.5C17.25 3.90326 17.0129 3.33097 16.591 2.90901C16.169 2.48705 15.5967 2.25 15 2.25ZM4.5 0C3.30653 0 2.16193 0.474106 1.31802 1.31802C0.474106 2.16193 0 3.30653 0 4.5V15C0 16.1935 0.474106 17.3381 1.31802 18.182C2.16193 19.0259 3.30653 19.5 4.5 19.5H15C16.1935 19.5 17.3381 19.0259 18.182 18.182C19.0259 17.3381 19.5 16.1935 19.5 15V4.5C19.5 3.30653 19.0259 2.16193 18.182 1.31802C17.3381 0.474106 16.1935 0 15 0H4.5Z" fill="#3772F0"/>
</svg>
