<svg width="21" height="21" viewBox="0 0 21 21" fill="none" xmlns="http://www.w3.org/2000/svg">
<path fill-rule="evenodd" clip-rule="evenodd" d="M20.67 9.705C20.8807 9.91594 20.999 10.2019 20.999 10.5C20.999 10.7981 20.8807 11.0841 20.67 11.295L16.92 15.045C16.817 15.1555 16.6928 15.2442 16.5548 15.3057C16.4168 15.3672 16.2678 15.4002 16.1168 15.4029C15.9657 15.4056 15.8157 15.3778 15.6756 15.3212C15.5355 15.2646 15.4083 15.1804 15.3014 15.0736C15.1946 14.9667 15.1104 14.8395 15.0538 14.6994C14.9972 14.5593 14.9694 14.4093 14.9721 14.2582C14.9748 14.1072 15.0078 13.9582 15.0693 13.8202C15.1308 13.6822 15.2195 13.558 15.33 13.455L17.16 11.625H5.625C5.32663 11.625 5.04048 11.5065 4.8295 11.2955C4.61853 11.0845 4.5 10.7984 4.5 10.5C4.5 10.2016 4.61853 9.91548 4.8295 9.7045C5.04048 9.49353 5.32663 9.375 5.625 9.375H17.16L15.33 7.545C15.1313 7.33174 15.0231 7.04967 15.0282 6.75822C15.0334 6.46676 15.1514 6.18869 15.3576 5.98257C15.5637 5.77645 15.8418 5.65838 16.1332 5.65324C16.4247 5.6481 16.7067 5.75628 16.92 5.955L20.67 9.705ZM12.75 4.875C12.75 5.17337 12.6315 5.45952 12.4205 5.6705C12.2095 5.88147 11.9234 6 11.625 6C11.3266 6 11.0405 5.88147 10.8295 5.6705C10.6185 5.45952 10.5 5.17337 10.5 4.875V4.5C10.5 3.90326 10.2629 3.33097 9.84099 2.90901C9.41903 2.48705 8.84674 2.25 8.25 2.25H4.5C3.90326 2.25 3.33097 2.48705 2.90901 2.90901C2.48705 3.33097 2.25 3.90326 2.25 4.5V16.5C2.25 17.0967 2.48705 17.669 2.90901 18.091C3.33097 18.5129 3.90326 18.75 4.5 18.75H8.25C8.84674 18.75 9.41903 18.5129 9.84099 18.091C10.2629 17.669 10.5 17.0967 10.5 16.5V16.125C10.5 15.8266 10.6185 15.5405 10.8295 15.3295C11.0405 15.1185 11.3266 15 11.625 15C11.9234 15 12.2095 15.1185 12.4205 15.3295C12.6315 15.5405 12.75 15.8266 12.75 16.125V16.5C12.75 17.6935 12.2759 18.8381 11.432 19.682C10.5881 20.5259 9.44347 21 8.25 21H4.5C3.30653 21 2.16193 20.5259 1.31802 19.682C0.474106 18.8381 0 17.6935 0 16.5V4.5C0 3.30653 0.474106 2.16193 1.31802 1.31802C2.16193 0.474106 3.30653 0 4.5 0H8.25C9.44347 0 10.5881 0.474106 11.432 1.31802C12.2759 2.16193 12.75 3.30653 12.75 4.5V4.875Z" fill="#393C3F"/>
</svg>
