<svg width="21" height="21" viewBox="0 0 21 21" fill="none" xmlns="http://www.w3.org/2000/svg">
<path fill-rule="evenodd" clip-rule="evenodd" d="M12 12.75V16.4565L18.414 11.208C18.5188 11.1222 18.6033 11.0141 18.6613 10.8917C18.7193 10.7693 18.7494 10.6355 18.7494 10.5C18.7494 10.3645 18.7193 10.2307 18.6613 10.1083C18.6033 9.98585 18.5188 9.87782 18.414 9.792L12 4.5435V8.25H7.125C7.02554 8.25 6.93016 8.28951 6.85983 8.35983C6.78951 8.43016 6.75 8.52554 6.75 8.625V12.375C6.75 12.582 6.918 12.75 7.125 12.75H12ZM4.5 8.625V12.3765C4.5004 13.0724 4.77713 13.7397 5.26937 14.2317C5.76161 14.7236 6.42907 15 7.125 15H9.75V16.539C9.75032 16.9573 9.86932 17.367 10.0932 17.7204C10.317 18.0738 10.6365 18.3565 11.0146 18.5355C11.3927 18.7146 11.8138 18.7827 12.229 18.732C12.6443 18.6813 13.0366 18.5138 13.3605 18.249L19.839 12.9495C20.2018 12.6526 20.4941 12.2789 20.6948 11.8553C20.8956 11.4317 20.9997 10.9688 20.9997 10.5C20.9997 10.0312 20.8956 9.56832 20.6948 9.1447C20.4941 8.72109 20.2018 8.34735 19.839 8.0505L13.3605 2.7495C13.0366 2.48471 12.6443 2.31722 12.229 2.26651C11.8138 2.21579 11.3927 2.28392 11.0146 2.46299C10.6365 2.64205 10.317 2.9247 10.0932 3.2781C9.86932 3.63151 9.75032 4.04117 9.75 4.4595V6H7.125C6.42881 6 5.76113 6.27656 5.26884 6.76884C4.77656 7.26113 4.5 7.92881 4.5 8.625ZM2.25 19.875C2.25 20.1734 2.13147 20.4595 1.9205 20.6705C1.70952 20.8815 1.42337 21 1.125 21C0.826631 21 0.540483 20.8815 0.329505 20.6705C0.118526 20.4595 4.44604e-09 20.1734 0 19.875V1.125C4.44604e-09 0.826631 0.118526 0.540483 0.329505 0.329505C0.540483 0.118526 0.826631 0 1.125 0C1.42337 0 1.70952 0.118526 1.9205 0.329505C2.13147 0.540483 2.25 0.826631 2.25 1.125V19.875Z" fill="white"/>
</svg>
