<svg width="18" height="19" viewBox="0 0 18 19" fill="none" xmlns="http://www.w3.org/2000/svg">
<path fill-rule="evenodd" clip-rule="evenodd" d="M7.90106 1.875H9.90231C9.96862 1.875 10.0322 1.90134 10.0791 1.94822C10.126 1.99511 10.1523 2.0587 10.1523 2.125C10.1523 4.385 12.5998 5.79875 14.5573 4.6675C14.6145 4.63519 14.682 4.62666 14.7454 4.64373C14.8088 4.6608 14.8629 4.70212 14.8961 4.75875L15.8986 6.49375C15.9313 6.551 15.94 6.61885 15.9229 6.68253C15.9058 6.74621 15.8643 6.80056 15.8073 6.83375C13.8498 7.96375 13.8498 10.7888 15.8073 11.92C15.8639 11.9532 15.9053 12.0073 15.9223 12.0707C15.9394 12.1341 15.9309 12.2016 15.8986 12.2588L14.8961 13.9937C14.8629 14.0504 14.8088 14.0917 14.7454 14.1088C14.682 14.1258 14.6145 14.1173 14.5573 14.085C12.5998 12.9537 10.1523 14.3663 10.1523 16.625C10.1523 16.6911 10.1261 16.7545 10.0795 16.8013C10.0329 16.8482 9.96965 16.8747 9.90356 16.875H7.90231C7.83601 16.875 7.77242 16.8487 7.72554 16.8018C7.67865 16.7549 7.65231 16.6913 7.65231 16.625C7.65231 14.365 5.20481 12.9525 3.24731 14.0825C3.19006 14.1152 3.12221 14.124 3.05853 14.1069C2.99485 14.0898 2.9405 14.0482 2.90731 13.9912L1.90731 12.2563C1.8749 12.1993 1.86617 12.1318 1.88301 12.0685C1.89984 12.0051 1.94089 11.9509 1.99731 11.9175C3.95481 10.7863 3.95481 7.96125 1.99731 6.83C1.94101 6.79683 1.89994 6.74293 1.88288 6.67985C1.86583 6.61677 1.87415 6.54952 1.90606 6.4925L2.90731 4.75625C2.94071 4.69949 2.99515 4.6582 3.05881 4.64135C3.12247 4.6245 3.19021 4.63345 3.24731 4.66625C5.20481 5.7975 7.65231 4.38375 7.65231 2.12375C7.65231 1.98625 7.76356 1.875 7.90106 1.875ZM5.77731 2.125C5.77731 0.95 6.72731 0 7.90106 0H9.90231C11.0773 0 12.0273 0.95 12.0273 2.125C12.0277 2.31121 12.077 2.49404 12.1703 2.65519C12.2636 2.81635 12.3976 2.95015 12.5589 3.0432C12.7201 3.13625 12.9031 3.18528 13.0893 3.18538C13.2755 3.18547 13.4584 3.13663 13.6198 3.04375C14.1076 2.76282 14.6869 2.68691 15.2306 2.83268C15.7743 2.97845 16.238 3.33398 16.5198 3.82125L17.5223 5.55625C18.1086 6.5725 17.7598 7.87 16.7448 8.45625C16.5834 8.54952 16.4493 8.68364 16.3561 8.84513C16.2629 9.00662 16.2138 9.18979 16.2138 9.37625C16.2138 9.56271 16.2629 9.74588 16.3561 9.90737C16.4493 10.0689 16.5834 10.203 16.7448 10.2963C17.2321 10.5781 17.5876 11.0417 17.7334 11.5854C17.8792 12.1291 17.8032 12.7085 17.5223 13.1963L16.5198 14.9312C16.238 15.4185 15.7743 15.7741 15.2306 15.9198C14.6869 16.0656 14.1076 15.9897 13.6198 15.7088C13.4584 15.6159 13.2755 15.567 13.0893 15.5671C12.9031 15.5672 12.7201 15.6162 12.5589 15.7093C12.3976 15.8024 12.2636 15.9362 12.1703 16.0973C12.077 16.2585 12.0277 16.4413 12.0273 16.6275C12.0273 17.8013 11.0773 18.7525 9.90356 18.7525H7.90231C7.33895 18.7522 6.79876 18.5281 6.40052 18.1297C6.00228 17.7312 5.77856 17.1909 5.77856 16.6275C5.77819 16.4413 5.72889 16.2585 5.6356 16.0973C5.54231 15.9362 5.40831 15.8024 5.24702 15.7093C5.08573 15.6162 4.90282 15.5672 4.71662 15.5671C4.53041 15.567 4.34745 15.6159 4.18606 15.7088C3.69828 15.9897 3.11895 16.0656 2.57525 15.9198C2.03155 15.7741 1.5679 15.4185 1.28606 14.9312L0.283565 13.1963C0.00263557 12.7085 -0.073276 12.1291 0.0724921 11.5854C0.21826 11.0417 0.573797 10.5781 1.06106 10.2963C1.22222 10.2029 1.35601 10.0688 1.44901 9.90745C1.54202 9.74609 1.59097 9.56312 1.59097 9.37688C1.59097 9.19063 1.54202 9.00766 1.44901 8.8463C1.35601 8.68494 1.22222 8.55086 1.06106 8.4575C0.573797 8.17567 0.21826 7.71202 0.0724921 7.16831C-0.073276 6.62461 0.00263557 6.04529 0.283565 5.5575L1.28481 3.82125C1.56665 3.33398 2.0303 2.97845 2.574 2.83268C3.1177 2.68691 3.69703 2.76282 4.18481 3.04375C4.3462 3.13663 4.52916 3.18547 4.71537 3.18538C4.90157 3.18528 5.08448 3.13625 5.24577 3.0432C5.40706 2.95015 5.54106 2.81635 5.63435 2.65519C5.72764 2.49404 5.77694 2.31121 5.77731 2.125ZM10.7773 9.375C10.7773 9.87228 10.5798 10.3492 10.2281 10.7008C9.87651 11.0525 9.3996 11.25 8.90231 11.25C8.40503 11.25 7.92812 11.0525 7.57649 10.7008C7.22486 10.3492 7.02731 9.87228 7.02731 9.375C7.02731 8.87772 7.22486 8.40081 7.57649 8.04917C7.92812 7.69754 8.40503 7.5 8.90231 7.5C9.3996 7.5 9.87651 7.69754 10.2281 8.04917C10.5798 8.40081 10.7773 8.87772 10.7773 9.375ZM12.6523 9.375C12.6523 10.3696 12.2572 11.3234 11.554 12.0267C10.8507 12.7299 9.89688 13.125 8.90231 13.125C7.90775 13.125 6.95393 12.7299 6.25066 12.0267C5.5474 11.3234 5.15231 10.3696 5.15231 9.375C5.15231 8.38044 5.5474 7.42661 6.25066 6.72335C6.95393 6.02009 7.90775 5.625 8.90231 5.625C9.89688 5.625 10.8507 6.02009 11.554 6.72335C12.2572 7.42661 12.6523 8.38044 12.6523 9.375Z" fill="#999EA4"/>
</svg>
