<svg width="20" height="16" viewBox="0 0 20 16" fill="none" xmlns="http://www.w3.org/2000/svg">
<path fill-rule="evenodd" clip-rule="evenodd" d="M6.875 5.76C7.37228 5.76 7.84919 5.55771 8.20083 5.19765C8.55246 4.83758 8.75 4.34922 8.75 3.84C8.75 3.33078 8.55246 2.84242 8.20083 2.48235C7.84919 2.12229 7.37228 1.92 6.875 1.92C6.37772 1.92 5.90081 2.12229 5.54917 2.48235C5.19754 2.84242 5 3.33078 5 3.84C5 4.34922 5.19754 4.83758 5.54917 5.19765C5.90081 5.55771 6.37772 5.76 6.875 5.76ZM6.875 7.68C7.86956 7.68 8.82339 7.27543 9.52665 6.55529C10.2299 5.83515 10.625 4.85843 10.625 3.84C10.625 2.82157 10.2299 1.84485 9.52665 1.12471C8.82339 0.40457 7.86956 0 6.875 0C5.88044 0 4.92661 0.40457 4.22335 1.12471C3.52009 1.84485 3.125 2.82157 3.125 3.84C3.125 4.85843 3.52009 5.83515 4.22335 6.55529C4.92661 7.27543 5.88044 7.68 6.875 7.68ZM3.08875 11.3741C2.1175 12.0653 1.875 12.7347 1.875 13.0458C1.875 13.6166 2.3275 14.08 2.885 14.08H10.865C11.1327 14.0793 11.3892 13.9701 11.5784 13.7763C11.7677 13.5825 11.8743 13.3198 11.875 13.0458C11.875 12.7334 11.6325 12.064 10.6613 11.3741C9.74 10.72 8.39875 10.24 6.875 10.24C5.35125 10.24 4.01 10.72 3.08875 11.3741ZM0 13.0458C0 10.6829 3.09375 8.32 6.875 8.32C8.35 8.32 9.7225 8.67968 10.8463 9.25952C11.9224 8.63659 13.1389 8.3127 14.375 8.32C17.4687 8.32 20 10.2886 20 12.2586C20 12.9114 19.7467 13.5375 19.296 13.9991C18.8452 14.4607 18.2338 14.72 17.5962 14.72H13.2425C12.7225 15.4931 11.8513 16 10.865 16H2.885C2.12005 15.9993 1.38663 15.6879 0.845728 15.134C0.304829 14.5801 0.000662005 13.8291 0 13.0458ZM13.7388 12.8H17.5962C17.8887 12.8 18.125 12.5568 18.125 12.2586C18.125 12.1267 18.005 11.6544 17.265 11.1194C16.5725 10.6163 15.5462 10.24 14.375 10.24C13.7287 10.24 13.1262 10.3552 12.6 10.5421C13.2575 11.2256 13.6675 12.009 13.7388 12.8ZM15.625 4.48C15.625 4.81948 15.4933 5.14505 15.2589 5.3851C15.0245 5.62514 14.7065 5.76 14.375 5.76C14.0435 5.76 13.7255 5.62514 13.4911 5.3851C13.2567 5.14505 13.125 4.81948 13.125 4.48C13.125 4.14052 13.2567 3.81495 13.4911 3.5749C13.7255 3.33486 14.0435 3.2 14.375 3.2C14.7065 3.2 15.0245 3.33486 15.2589 3.5749C15.4933 3.81495 15.625 4.14052 15.625 4.48ZM17.5 4.48C17.5 5.32869 17.1708 6.14263 16.5847 6.74274C15.9987 7.34286 15.2038 7.68 14.375 7.68C13.5462 7.68 12.7513 7.34286 12.1653 6.74274C11.5792 6.14263 11.25 5.32869 11.25 4.48C11.25 3.63131 11.5792 2.81737 12.1653 2.21726C12.7513 1.61714 13.5462 1.28 14.375 1.28C15.2038 1.28 15.9987 1.61714 16.5847 2.21726C17.1708 2.81737 17.5 3.63131 17.5 4.48Z" fill="#393C3F"/>
</svg>
