<svg width="1056" height="171" viewBox="0 0 1056 171" fill="none" xmlns="http://www.w3.org/2000/svg">
<path d="M194.028 7.29597V168.72H143.64V88.236L118.788 168.72H75.4679L50.6159 88.236V168.72H-8.52793e-05V7.29597H62.0159L97.5839 104.196L132.24 7.29597H194.028ZM205.467 104.424C205.467 90.896 207.747 79.192 212.307 69.312C217.019 59.28 223.403 51.68 231.459 46.512C239.515 41.192 248.559 38.532 258.591 38.532C266.951 38.532 274.171 40.28 280.251 43.776C286.331 47.12 290.967 51.756 294.159 57.684V40.128H344.547V168.72H294.159V151.164C290.967 157.092 286.331 161.804 280.251 165.3C274.171 168.644 266.951 170.316 258.591 170.316C248.559 170.316 239.515 167.732 231.459 162.564C223.403 157.244 217.019 149.644 212.307 139.764C207.747 129.732 205.467 117.952 205.467 104.424ZM294.159 104.424C294.159 97.584 292.411 92.264 288.915 88.464C285.419 84.664 280.935 82.764 275.463 82.764C269.991 82.764 265.507 84.664 262.011 88.464C258.515 92.264 256.767 97.584 256.767 104.424C256.767 111.264 258.515 116.584 262.011 120.384C265.507 124.184 269.991 126.084 275.463 126.084C280.935 126.084 285.419 124.184 288.915 120.384C292.411 116.584 294.159 111.264 294.159 104.424ZM452.776 39.216C467.52 39.216 478.996 44.156 487.204 54.036C495.564 63.916 499.744 77.292 499.744 94.164V168.72H449.356V100.548C449.356 94.468 447.684 89.68 444.34 86.184C441.148 82.536 436.816 80.712 431.344 80.712C425.72 80.712 421.312 82.536 418.12 86.184C414.928 89.68 413.332 94.468 413.332 100.548V168.72H362.716V40.128H413.332V59.736C417.284 53.656 422.528 48.716 429.064 44.916C435.752 41.116 443.656 39.216 452.776 39.216Z" fill="#3772F0"/>
<path d="M599.44 168.72L567.748 117.42V168.72H517.132V-3.14713e-05H567.748V88.236L599.896 40.128H658.72L610.612 104.88L659.86 168.72H599.44ZM802.767 40.128V168.72H752.151V149.112C748.199 155.192 742.879 160.132 736.191 163.932C729.655 167.732 721.827 169.632 712.707 169.632C697.963 169.632 686.411 164.692 678.051 154.812C669.843 144.932 665.739 131.556 665.739 114.684V40.128H716.127V108.3C716.127 114.38 717.723 119.244 720.915 122.892C724.259 126.388 728.667 128.136 734.139 128.136C739.763 128.136 744.171 126.388 747.363 122.892C750.555 119.244 752.151 114.38 752.151 108.3V40.128H802.767ZM871.683 63.84C876.851 56.392 883.159 50.464 890.607 46.056C898.055 41.496 905.807 39.216 913.863 39.216V93.252H899.499C889.923 93.252 882.855 94.924 878.295 98.268C873.887 101.612 871.683 107.54 871.683 116.052V168.72H821.067V40.128H871.683V63.84ZM916.097 104.424C916.097 90.896 918.377 79.192 922.937 69.312C927.649 59.28 934.033 51.68 942.089 46.512C950.145 41.192 959.189 38.532 969.221 38.532C977.581 38.532 984.801 40.28 990.881 43.776C996.961 47.12 1001.6 51.756 1004.79 57.684V40.128H1055.18V168.72H1004.79V151.164C1001.6 157.092 996.961 161.804 990.881 165.3C984.801 168.644 977.581 170.316 969.221 170.316C959.189 170.316 950.145 167.732 942.089 162.564C934.033 157.244 927.649 149.644 922.937 139.764C918.377 129.732 916.097 117.952 916.097 104.424ZM1004.79 104.424C1004.79 97.584 1003.04 92.264 999.545 88.464C996.049 84.664 991.565 82.764 986.093 82.764C980.621 82.764 976.137 84.664 972.641 88.464C969.145 92.264 967.397 97.584 967.397 104.424C967.397 111.264 969.145 116.584 972.641 120.384C976.137 124.184 980.621 126.084 986.093 126.084C991.565 126.084 996.049 124.184 999.545 120.384C1003.04 116.584 1004.79 111.264 1004.79 104.424Z" fill="#393C3F"/>
</svg>
