<svg width="24" height="23" viewBox="0 0 24 23" fill="none" xmlns="http://www.w3.org/2000/svg">
<path fill-rule="evenodd" clip-rule="evenodd" d="M10.5 8.25C11.2956 8.25 12.0587 7.93393 12.6213 7.37132C13.1839 6.80871 13.5 6.04565 13.5 5.25C13.5 4.45435 13.1839 3.69129 12.6213 3.12868C12.0587 2.56607 11.2956 2.25 10.5 2.25C9.70435 2.25 8.94129 2.56607 8.37868 3.12868C7.81607 3.69129 7.5 4.45435 7.5 5.25C7.5 6.04565 7.81607 6.80871 8.37868 7.37132C8.94129 7.93393 9.70435 8.25 10.5 8.25ZM10.5 10.5C11.8924 10.5 13.2277 9.94688 14.2123 8.96231C15.1969 7.97774 15.75 6.64239 15.75 5.25C15.75 3.85761 15.1969 2.52226 14.2123 1.53769C13.2277 0.553123 11.8924 0 10.5 0C9.10761 0 7.77226 0.553123 6.78769 1.53769C5.80312 2.52226 5.25 3.85761 5.25 5.25C5.25 6.64239 5.80312 7.97774 6.78769 8.96231C7.77226 9.94688 9.10761 10.5 10.5 10.5ZM9.75 12.4485C9.75 11.8035 9.21 11.2875 8.5725 11.3625C3.7095 11.9325 0 14.592 0 17.25C0 18.2446 0.395088 19.1984 1.09835 19.9017C1.80161 20.6049 2.75544 21 3.75 21H8.625C8.92337 21 9.20952 20.8815 9.4205 20.6705C9.63147 20.4595 9.75 20.1734 9.75 19.875C9.75 19.5766 9.63147 19.2905 9.4205 19.0795C9.20952 18.8685 8.92337 18.75 8.625 18.75H3.75C3.35218 18.75 2.97064 18.592 2.68934 18.3107C2.40804 18.0294 2.25 17.6478 2.25 17.25C2.25 16.9425 2.58 16.0365 4.23 15.0615C5.3775 14.3835 6.918 13.842 8.6835 13.6155C9.279 13.539 9.75 13.0485 9.75 12.4485ZM21.753 15.2835C21.0424 15.0983 20.413 14.6834 19.9627 14.1034C19.5124 13.5234 19.2664 12.8108 19.263 12.0765L18.243 11.6925C17.7823 12.3164 17.131 12.7733 16.3876 12.9941C15.6442 13.215 14.8491 13.1877 14.1225 12.9165L13.5135 13.77C14.3685 14.952 14.3685 16.575 13.5135 17.7555L14.1225 18.609C14.8491 18.3378 15.6442 18.3105 16.3876 18.5314C17.131 18.7522 17.7823 19.2091 18.243 19.833L19.263 19.4505C19.266 18.7159 19.5119 18.003 19.9622 17.4227C20.4126 16.8424 21.0422 16.4273 21.753 16.242V15.2835ZM21.585 11.6895C21.6346 11.5576 21.6577 11.4173 21.653 11.2765C21.6483 11.1356 21.6159 10.9971 21.5577 10.8688C21.4995 10.7406 21.4166 10.625 21.3137 10.5288C21.2108 10.4325 21.0899 10.3575 20.958 10.308L18.261 9.297C18.1014 9.23708 17.9317 9.20919 17.7613 9.21491C17.591 9.22062 17.4234 9.25985 17.2683 9.33033C17.1131 9.40081 16.9733 9.50118 16.8569 9.62569C16.7406 9.7502 16.6499 9.89642 16.59 10.056C16.5185 10.2424 16.4052 10.4099 16.2588 10.5456C16.1125 10.6814 15.9369 10.7817 15.7456 10.839C15.5544 10.8962 15.3526 10.9088 15.1557 10.8758C14.9588 10.8427 14.7721 10.765 14.61 10.6485C14.3252 10.4447 13.9713 10.3619 13.6256 10.4181C13.28 10.4743 12.9706 10.665 12.765 10.9485L11.151 13.2075C11.0624 13.331 10.9991 13.4708 10.9646 13.6189C10.9301 13.7669 10.9252 13.9203 10.9502 14.0702C10.9751 14.2202 11.0294 14.3637 11.11 14.4927C11.1905 14.6216 11.2957 14.7333 11.4195 14.8215C12.0645 15.2835 12.0645 16.2435 11.4195 16.704C11.2956 16.7921 11.1902 16.9037 11.1096 17.0326C11.0289 17.1615 10.9744 17.305 10.9494 17.4549C10.9243 17.6049 10.929 17.7583 10.9634 17.9064C10.9977 18.0545 11.061 18.1944 11.1495 18.318L12.765 20.577C12.9706 20.8605 13.28 21.0512 13.6256 21.1074C13.9713 21.1636 14.3252 21.0808 14.61 20.877C14.7721 20.7605 14.9588 20.6828 15.1557 20.6497C15.3526 20.6167 15.5544 20.6293 15.7456 20.6865C15.9369 20.7438 16.1125 20.8441 16.2588 20.9799C16.4052 21.1156 16.5185 21.2831 16.59 21.4695C16.6499 21.6291 16.7406 21.7753 16.8569 21.8998C16.9733 22.0243 17.1131 22.1247 17.2683 22.1952C17.4234 22.2657 17.591 22.3049 17.7613 22.3106C17.9317 22.3163 18.1014 22.2884 18.261 22.2285L20.958 21.2175C21.224 21.1175 21.4395 20.916 21.557 20.6572C21.6746 20.3985 21.6847 20.1037 21.585 19.8375C21.5241 19.6752 21.5035 19.5005 21.525 19.3285C21.5464 19.1565 21.6092 18.9922 21.708 18.8498C21.8068 18.7073 21.9386 18.5909 22.0922 18.5106C22.2458 18.4303 22.4166 18.3884 22.59 18.3885H22.791C23.1127 18.3881 23.4211 18.2601 23.6486 18.0326C23.8761 17.8051 24.0041 17.4967 24.0045 17.175V14.3505C24.0037 14.029 23.8756 13.721 23.6481 13.4938C23.4207 13.2667 23.1125 13.1389 22.791 13.1385H22.5885C22.4153 13.1384 22.2447 13.0963 22.0912 13.0159C21.9378 12.9354 21.8062 12.819 21.7075 12.6766C21.6089 12.5342 21.5463 12.37 21.5249 12.1981C21.5036 12.0262 21.5242 11.8517 21.585 11.6895ZM18.8355 15.678C18.842 15.8892 18.806 16.0996 18.7297 16.2966C18.6534 16.4937 18.5382 16.6734 18.3911 16.8251C18.244 16.9768 18.0679 17.0975 17.8733 17.1798C17.6787 17.2622 17.4696 17.3046 17.2582 17.3046C17.0469 17.3046 16.8378 17.2622 16.6432 17.1798C16.4486 17.0975 16.2725 16.9768 16.1254 16.8251C15.9783 16.6734 15.8631 16.4937 15.7868 16.2966C15.7105 16.0996 15.6745 15.8892 15.681 15.678C15.6936 15.2681 15.8654 14.8792 16.1598 14.5938C16.4542 14.3083 16.8482 14.1486 17.2582 14.1486C17.6683 14.1486 18.0623 14.3083 18.3567 14.5938C18.6511 14.8792 18.8229 15.2681 18.8355 15.678Z" fill="#393C3F"/>
</svg>
