<svg width="16" height="16" viewBox="0 0 16 16" fill="none" xmlns="http://www.w3.org/2000/svg">
<path fill-rule="evenodd" clip-rule="evenodd" d="M11.6726 0C12.8203 0 13.921 0.455921 14.7325 1.26747C15.5441 2.07901 16 3.1797 16 4.3274C16 4.65404 15.8693 4.96858 15.6371 5.20086L14.9983 5.84084L12.6138 8.22532L6.49351 14.3456C5.98678 14.8521 5.34148 15.1973 4.63891 15.3376L1.4475 15.9764C1.25214 16.0156 1.05014 16.0059 0.859432 15.9482C0.668727 15.8905 0.495224 15.7865 0.354338 15.6457C0.213451 15.5048 0.109542 15.3313 0.0518417 15.1406C-0.00585908 14.9499 -0.0155653 14.7479 0.0235851 14.5525L0.662351 11.3611C0.802724 10.6585 1.1479 10.0132 1.65437 9.50649L7.77467 3.38619L10.7991 0.361726C11.0302 0.130657 11.3447 0 11.6726 0ZM8.878 4.85003L2.93796 10.7901C2.68482 11.0433 2.51224 11.3657 2.44194 11.7168L1.98223 14.019L4.28324 13.5593C4.63473 13.4892 4.95761 13.3166 5.21114 13.0633L11.1512 7.12321C11.0972 6.53823 10.8402 5.99059 10.4248 5.57519C10.0094 5.15979 9.46177 4.90282 8.87679 4.84882M12.6247 5.64485C12.1849 4.62519 11.3722 3.81204 10.3527 3.37167L11.9012 1.82315C13.105 1.93203 14.0643 2.89259 14.1732 4.09754L12.6247 5.64485Z" fill="#393C3F"/>
</svg>
