<svg width="24" height="24" viewBox="0 0 24 24" fill="none" xmlns="http://www.w3.org/2000/svg">
<path fill-rule="evenodd" clip-rule="evenodd" d="M18.48 11.0914C18.7208 11.3325 18.856 11.6593 18.856 12C18.856 12.3407 18.7208 12.6675 18.48 12.9086L14.1943 17.1943C14.0766 17.3206 13.9346 17.4219 13.7769 17.4922C13.6192 17.5625 13.449 17.6003 13.2763 17.6033C13.1037 17.6063 12.9322 17.5746 12.7721 17.5099C12.612 17.4453 12.4666 17.349 12.3445 17.2269C12.2224 17.1048 12.1262 16.9594 12.0615 16.7993C11.9968 16.6392 11.9651 16.4677 11.9681 16.2951C11.9712 16.1225 12.009 15.9522 12.0792 15.7945C12.1495 15.6368 12.2508 15.4948 12.3771 15.3771L14.4686 13.2857H1.28571C0.944722 13.2857 0.617695 13.1503 0.376577 12.9091C0.135459 12.668 0 12.341 0 12C0 11.659 0.135459 11.332 0.376577 11.0909C0.617695 10.8497 0.944722 10.7143 1.28571 10.7143H14.4686L12.3771 8.62286C12.15 8.37913 12.0264 8.05676 12.0323 7.72368C12.0381 7.39059 12.1731 7.07278 12.4086 6.83722C12.6442 6.60165 12.962 6.46672 13.2951 6.46084C13.6282 6.45497 13.9506 6.57861 14.1943 6.80571L18.48 11.0914ZM5.14286 18.4286C5.14286 18.0876 5.27832 17.7606 5.51943 17.5194C5.76055 17.2783 6.08758 17.1429 6.42857 17.1429C6.76956 17.1429 7.09659 17.2783 7.33771 17.5194C7.57883 17.7606 7.71429 18.0876 7.71429 18.4286V18.8571C7.71429 19.5391 7.9852 20.1932 8.46744 20.6754C8.94968 21.1577 9.60373 21.4286 10.2857 21.4286H18.8571C19.5391 21.4286 20.1932 21.1577 20.6754 20.6754C21.1577 20.1932 21.4286 19.5391 21.4286 18.8571V5.14286C21.4286 4.46087 21.1577 3.80682 20.6754 3.32458C20.1932 2.84235 19.5391 2.57143 18.8571 2.57143H10.2857C9.60373 2.57143 8.94968 2.84235 8.46744 3.32458C7.9852 3.80682 7.71429 4.46087 7.71429 5.14286V5.57143C7.71429 5.91242 7.57883 6.23945 7.33771 6.48057C7.09659 6.72168 6.76956 6.85714 6.42857 6.85714C6.08758 6.85714 5.76055 6.72168 5.51943 6.48057C5.27832 6.23945 5.14286 5.91242 5.14286 5.57143V5.14286C5.14286 3.77889 5.68469 2.47078 6.64917 1.50631C7.61364 0.541835 8.92174 0 10.2857 0H18.8571C20.2211 0 21.5292 0.541835 22.4937 1.50631C23.4582 2.47078 24 3.77889 24 5.14286V18.8571C24 20.2211 23.4582 21.5292 22.4937 22.4937C21.5292 23.4582 20.2211 24 18.8571 24H10.2857C8.92174 24 7.61364 23.4582 6.64917 22.4937C5.68469 21.5292 5.14286 20.2211 5.14286 18.8571V18.4286Z" fill="#393C3F"/>
</svg>
