<svg width="21" height="21" viewBox="0 0 21 21" fill="none" xmlns="http://www.w3.org/2000/svg">
<path fill-rule="evenodd" clip-rule="evenodd" d="M8.99971 8.25V4.5435L2.58571 9.792C2.48088 9.87782 2.39642 9.98585 2.33842 10.1083C2.28042 10.2307 2.25033 10.3645 2.25033 10.5C2.25033 10.6355 2.28042 10.7693 2.33842 10.8917C2.39642 11.0141 2.48088 11.1222 2.58571 11.208L8.99971 16.4565V12.75H13.8747C13.9742 12.75 14.0695 12.7105 14.1399 12.6402C14.2102 12.5698 14.2497 12.4745 14.2497 12.375V8.625C14.2497 8.52554 14.2102 8.43016 14.1399 8.35983C14.0695 8.28951 13.9742 8.25 13.8747 8.25H8.99971ZM16.4997 12.375V8.6235C16.4993 7.92757 16.2226 7.26027 15.7303 6.76831C15.2381 6.27636 14.5706 6 13.8747 6H11.2497V4.461C11.2494 4.04267 11.1304 3.63301 10.9065 3.2796C10.6827 2.9262 10.3632 2.64355 9.9851 2.46449C9.60703 2.28542 9.18591 2.21729 8.77066 2.26801C8.35541 2.31873 7.96307 2.48621 7.63921 2.751L1.16071 8.049C0.797916 8.34585 0.505592 8.71959 0.30486 9.1432C0.104128 9.56682 0 10.0297 0 10.4985C0 10.9673 0.104128 11.4302 0.30486 11.8538C0.505592 12.2774 0.797916 12.6511 1.16071 12.948L7.63921 18.249C7.96307 18.5138 8.35541 18.6813 8.77066 18.732C9.18591 18.7827 9.60703 18.7146 9.9851 18.5355C10.3632 18.3565 10.6827 18.0738 10.9065 17.7204C11.1304 17.367 11.2494 16.9573 11.2497 16.539V15H13.8747C14.5709 15 15.2386 14.7234 15.7309 14.2312C16.2231 13.7389 16.4997 13.0712 16.4997 12.375ZM18.7497 1.125C18.7497 0.826631 18.8682 0.540483 19.0792 0.329505C19.2902 0.118526 19.5763 0 19.8747 0C20.1731 0 20.4592 0.118526 20.6702 0.329505C20.8812 0.540483 20.9997 0.826631 20.9997 1.125V19.875C20.9997 20.1734 20.8812 20.4595 20.6702 20.6705C20.4592 20.8815 20.1731 21 19.8747 21C19.5763 21 19.2902 20.8815 19.0792 20.6705C18.8682 20.4595 18.7497 20.1734 18.7497 19.875V1.125Z" fill="white"/>
</svg>
