<svg width="16" height="16" viewBox="0 0 16 16" fill="none" xmlns="http://www.w3.org/2000/svg">
<path fill-rule="evenodd" clip-rule="evenodd" d="M12.2014 6.97194C12.2014 7.65869 12.0662 8.33871 11.8033 8.97318C11.5405 9.60765 11.1553 10.1841 10.6697 10.6697C10.1841 11.1553 9.60765 11.5405 8.97318 11.8033C8.33871 12.0662 7.65869 12.2014 6.97194 12.2014C6.2852 12.2014 5.60518 12.0662 4.97071 11.8033C4.33624 11.5405 3.75975 11.1553 3.27415 10.6697C2.78855 10.1841 2.40335 9.60765 2.14054 8.97318C1.87774 8.33871 1.74247 7.65869 1.74247 6.97194C1.74247 5.585 2.29343 4.25486 3.27415 3.27415C4.25486 2.29343 5.585 1.74247 6.97194 1.74247C8.35889 1.74247 9.68902 2.29343 10.6697 3.27415C11.6505 4.25486 12.2014 5.585 12.2014 6.97194ZM11.2485 12.4803C9.84743 13.568 8.08451 14.0809 6.31861 13.9145C4.55271 13.7482 2.9166 12.915 1.74334 11.5848C0.570086 10.2546 -0.052109 8.52719 0.0034212 6.75434C0.0589514 4.98149 0.788032 3.29645 2.04224 2.04224C3.29645 0.788032 4.98149 0.0589514 6.75434 0.0034212C8.52719 -0.052109 10.2546 0.570086 11.5848 1.74334C12.915 2.9166 13.7482 4.55271 13.9145 6.31861C14.0809 8.08451 13.568 9.84743 12.4803 11.2485L15.7226 14.4908C15.8082 14.5706 15.8769 14.6668 15.9245 14.7737C15.9722 14.8806 15.9978 14.996 15.9999 15.113C16.0019 15.2301 15.9804 15.3463 15.9366 15.4548C15.8927 15.5634 15.8275 15.662 15.7447 15.7447C15.662 15.8275 15.5634 15.8927 15.4548 15.9366C15.3463 15.9804 15.2301 16.0019 15.113 15.9999C14.996 15.9978 14.8806 15.9722 14.7737 15.9245C14.6668 15.8769 14.5706 15.8082 14.4908 15.7226L11.2485 12.4803Z" fill="#999EA4"/>
</svg>
