<svg width="40" height="40" viewBox="0 0 40 40" fill="none" xmlns="http://www.w3.org/2000/svg">
<circle cx="20" cy="20" r="20" fill="url(#paint0_linear_2081_204)"/>
<path fill-rule="evenodd" clip-rule="evenodd" d="M11.9553 25.4795L13.1369 19.9705L11.9553 14.4614C11.8139 13.8039 11.8594 13.1199 12.0869 12.487C12.3143 11.8541 12.7144 11.2975 13.242 10.8804C13.7695 10.4632 14.4034 10.2022 15.0717 10.1269C15.74 10.0516 16.416 10.165 17.0232 10.4542L30.3546 16.7938C30.9551 17.0796 31.4623 17.5297 31.8175 18.092C32.1726 18.6542 32.3612 19.3056 32.3613 19.9707C32.3614 20.6357 32.1731 21.2872 31.8181 21.8495C31.4631 22.4119 30.9561 22.8622 30.3557 23.1482L29.3862 21.116C29.6036 21.0137 29.7874 20.8517 29.9161 20.6488C30.0448 20.446 30.1132 20.2107 30.1132 19.9705C30.1132 19.7302 30.0448 19.495 29.9161 19.2921C29.7874 19.0893 29.6036 18.9272 29.3862 18.825L16.058 12.4886C15.8305 12.3797 15.577 12.3368 15.3263 12.3647C15.0756 12.3925 14.8378 12.49 14.6397 12.6461C14.4416 12.8023 14.2912 13.0108 14.2056 13.248C14.1199 13.4852 14.1025 13.7417 14.1552 13.9884L15.1957 18.8451L22.1525 18.8441C22.3019 18.8415 22.4503 18.8688 22.589 18.9242C22.7277 18.9796 22.854 19.0621 22.9605 19.1669C23.067 19.2716 23.1515 19.3966 23.2092 19.5344C23.2669 19.6721 23.2966 19.82 23.2965 19.9694C23.2965 20.1188 23.2667 20.2667 23.2088 20.4044C23.151 20.5421 23.0663 20.667 22.9597 20.7716C22.8531 20.8763 22.7268 20.9587 22.588 21.014C22.4492 21.0693 22.3008 21.0964 22.1515 21.0937L15.1946 21.0948L14.1552 25.9505C14.1023 26.197 14.1195 26.4534 14.2048 26.6907C14.2902 26.928 14.4403 27.1366 14.6381 27.2929C14.836 27.4492 15.0736 27.547 15.3242 27.5752C15.5748 27.6034 15.8282 27.5608 16.0559 27.4524L29.3873 21.1149L30.3536 23.1461L17.0221 29.4857C16.4151 29.7745 15.7393 29.8877 15.0713 29.8122C14.4033 29.7368 13.7697 29.4758 13.2424 29.0589C12.7151 28.642 12.315 28.0857 12.0875 27.4531C11.8601 26.8205 11.8143 26.1368 11.9553 25.4795Z" fill="white"/>
<defs>
<linearGradient id="paint0_linear_2081_204" x1="12" y1="29.2319" x2="45.6349" y2="10.0748" gradientUnits="userSpaceOnUse">
<stop stop-color="#3772F0"/>
<stop offset="1" stop-color="#7CF1F9"/>
</linearGradient>
</defs>
</svg>
