<svg width="17" height="11" viewBox="0 0 17 11" fill="none" xmlns="http://www.w3.org/2000/svg">
<path fill-rule="evenodd" clip-rule="evenodd" d="M2.23871 10.78C2.37933 10.9205 2.56996 10.9993 2.76871 10.9993C2.96746 10.9993 3.15808 10.9205 3.29871 10.78L5.29871 8.78C5.3724 8.71134 5.4315 8.62854 5.47249 8.53654C5.51348 8.44454 5.53552 8.34523 5.5373 8.24452C5.53908 8.14382 5.52055 8.04379 5.48283 7.9504C5.44511 7.85701 5.38897 7.77218 5.31775 7.70096C5.24653 7.62974 5.16169 7.5736 5.06831 7.53588C4.97492 7.49816 4.87489 7.47963 4.77419 7.48141C4.67348 7.48318 4.57417 7.50523 4.48217 7.54622C4.39017 7.58721 4.30737 7.64631 4.23871 7.72L3.51871 8.44V0.75C3.51871 0.551088 3.43969 0.360322 3.29904 0.21967C3.15839 0.0790175 2.96762 0 2.76871 0C2.5698 0 2.37903 0.0790175 2.23838 0.21967C2.09773 0.360322 2.01871 0.551088 2.01871 0.75V8.44L1.29871 7.72C1.23005 7.64631 1.14725 7.58721 1.05525 7.54622C0.963247 7.50523 0.863934 7.48318 0.763231 7.48141C0.662528 7.47963 0.562499 7.49816 0.469111 7.53588C0.375723 7.5736 0.290889 7.62974 0.21967 7.70096C0.148451 7.77218 0.0923066 7.85701 0.0545856 7.9504C0.0168646 8.04379 -0.00166006 8.14382 0.000116721 8.24452C0.00189351 8.34523 0.0239353 8.44454 0.0649273 8.53654C0.105919 8.62854 0.165022 8.71134 0.238708 8.78L2.23871 10.78ZM7.01871 0.75C7.01871 0.551088 7.09773 0.360322 7.23838 0.21967C7.37903 0.0790175 7.5698 0 7.76871 0H15.2687C15.4676 0 15.6584 0.0790175 15.799 0.21967C15.9397 0.360322 16.0187 0.551088 16.0187 0.75C16.0187 0.948912 15.9397 1.13968 15.799 1.28033C15.6584 1.42098 15.4676 1.5 15.2687 1.5H7.76871C7.5698 1.5 7.37903 1.42098 7.23838 1.28033C7.09773 1.13968 7.01871 0.948912 7.01871 0.75ZM7.76871 4.75C7.5698 4.75 7.37903 4.82902 7.23838 4.96967C7.09773 5.11032 7.01871 5.30109 7.01871 5.5C7.01871 5.69891 7.09773 5.88968 7.23838 6.03033C7.37903 6.17098 7.5698 6.25 7.76871 6.25H13.2687C13.4676 6.25 13.6584 6.17098 13.799 6.03033C13.9397 5.88968 14.0187 5.69891 14.0187 5.5C14.0187 5.30109 13.9397 5.11032 13.799 4.96967C13.6584 4.82902 13.4676 4.75 13.2687 4.75H7.76871ZM7.76871 9.5C7.5698 9.5 7.37903 9.57902 7.23838 9.71967C7.09773 9.86032 7.01871 10.0511 7.01871 10.25C7.01871 10.4489 7.09773 10.6397 7.23838 10.7803C7.37903 10.921 7.5698 11 7.76871 11H10.2687C10.4676 11 10.6584 10.921 10.799 10.7803C10.9397 10.6397 11.0187 10.4489 11.0187 10.25C11.0187 10.0511 10.9397 9.86032 10.799 9.71967C10.6584 9.57902 10.4676 9.5 10.2687 9.5H7.76871Z" fill="#393C3F"/>
</svg>
