<svg width="16" height="16" viewBox="0 0 16 16" fill="none" xmlns="http://www.w3.org/2000/svg">
<path fill-rule="evenodd" clip-rule="evenodd" d="M8.60571 12.32C8.445 12.4805 8.22714 12.5707 8 12.5707C7.77286 12.5707 7.555 12.4805 7.39429 12.32L4.53714 9.46286C4.38574 9.30037 4.30331 9.08546 4.30723 8.8634C4.31115 8.64135 4.4011 8.42948 4.55815 8.27243C4.71519 8.11539 4.92706 8.02543 5.14912 8.02151C5.37118 8.0176 5.58609 8.10002 5.74857 8.25143L7.14286 9.64571V0.857143C7.14286 0.629814 7.23316 0.411797 7.39391 0.251051C7.55465 0.0903059 7.77267 0 8 0C8.22733 0 8.44535 0.0903059 8.60609 0.251051C8.76684 0.411797 8.85714 0.629814 8.85714 0.857143V9.64571L10.2514 8.25143C10.3299 8.16722 10.4245 8.09967 10.5297 8.05282C10.6348 8.00597 10.7483 7.98078 10.8634 7.97875C10.9785 7.97672 11.0928 7.99789 11.1995 8.041C11.3063 8.08411 11.4032 8.14828 11.4846 8.22967C11.566 8.31106 11.6302 8.40802 11.6733 8.51475C11.7164 8.62148 11.7376 8.73579 11.7355 8.85088C11.7335 8.96597 11.7083 9.07947 11.6615 9.18462C11.6146 9.28976 11.5471 9.38439 11.4629 9.46286L8.60571 12.32ZM3.71429 3.42857C3.94161 3.42857 4.15963 3.51888 4.32038 3.67962C4.48112 3.84037 4.57143 4.05839 4.57143 4.28571C4.57143 4.51304 4.48112 4.73106 4.32038 4.89181C4.15963 5.05255 3.94161 5.14286 3.71429 5.14286H3.42857C2.97391 5.14286 2.53788 5.32347 2.21639 5.64496C1.8949 5.96645 1.71429 6.40249 1.71429 6.85714V12.5714C1.71429 13.0261 1.8949 13.4621 2.21639 13.7836C2.53788 14.1051 2.97391 14.2857 3.42857 14.2857H12.5714C13.0261 14.2857 13.4621 14.1051 13.7836 13.7836C14.1051 13.4621 14.2857 13.0261 14.2857 12.5714V6.85714C14.2857 6.40249 14.1051 5.96645 13.7836 5.64496C13.4621 5.32347 13.0261 5.14286 12.5714 5.14286H12.2857C12.0584 5.14286 11.8404 5.05255 11.6796 4.89181C11.5189 4.73106 11.4286 4.51304 11.4286 4.28571C11.4286 4.05839 11.5189 3.84037 11.6796 3.67962C11.8404 3.51888 12.0584 3.42857 12.2857 3.42857H12.5714C13.4807 3.42857 14.3528 3.7898 14.9958 4.43278C15.6388 5.07576 16 5.94783 16 6.85714V12.5714C16 13.4807 15.6388 14.3528 14.9958 14.9958C14.3528 15.6388 13.4807 16 12.5714 16H3.42857C2.51926 16 1.64719 15.6388 1.00421 14.9958C0.361223 14.3528 0 13.4807 0 12.5714V6.85714C0 5.94783 0.361223 5.07576 1.00421 4.43278C1.64719 3.7898 2.51926 3.42857 3.42857 3.42857H3.71429Z" fill="#393C3F"/>
</svg>
